<svg xmlns="http://www.w3.org/2000/svg" version="1.1" xmlns:xlink="http://www.w3.org/1999/xlink" xmlns:svgjs="http://svgjs.dev/svgjs" width="512" height="512"><svg xmlns="http://www.w3.org/2000/svg" xmlns:xlink="http://www.w3.org/1999/xlink" version="1.1" id="SvgjsSvg1421" x="0px" y="0px" viewBox="0 0 416 416" style="enable-background:new 0 0 416 416;" xml:space="preserve" width="512" height="512">
<g>
	<path d="M0,312c0.029,26.498,21.502,47.971,48,48h320c26.498-0.029,47.971-21.502,48-48V104c-0.029-26.498-21.502-47.971-48-48H48   C21.502,56.029,0.029,77.502,0,104V312z M368,328H48c-8.832-0.011-15.989-7.168-16-16V152h352v160   C383.989,320.832,376.832,327.989,368,328z M48,88h320c8.832,0.01,15.99,7.168,16,16v16H32v-16C32.01,95.168,39.168,88.01,48,88z"></path>
	<path d="M296,192c-20.318,0.035-38.417,12.848-45.2,32H88c-8.837,0-16,7.163-16,16s7.163,16,16,16h16v16c0,8.837,7.163,16,16,16   s16-7.163,16-16v-16h16v16c0,8.837,7.163,16,16,16s16-7.163,16-16v-16h66.8c8.849,24.975,36.27,38.048,61.245,29.199   c24.975-8.849,38.048-36.27,29.199-61.245C334.455,204.793,316.328,191.991,296,192z M296,256c-8.837,0-16-7.163-16-16   s7.163-16,16-16s16,7.163,16,16C311.989,248.832,304.832,255.989,296,256z"></path>
</g>















</svg><style>@media (prefers-color-scheme: light) { :root { filter: none; } }
@media (prefers-color-scheme: dark) { :root { filter: invert(100%); } }
</style></svg>